<?xml version="1.0" encoding="UTF-8"?>
<svg id="Camada_2" data-name="Camada 2" xmlns="http://www.w3.org/2000/svg" xmlns:xlink="http://www.w3.org/1999/xlink" viewBox="0 0 146.76 160">
  <defs>
    <style>
      .cls-1 {
        fill: url(#Gradiente_sem_nome_2);
      }

      .cls-1, .cls-2 {
        stroke-width: 0px;
      }

      .cls-2 {
        fill: #fff;
      }
    </style>
    <linearGradient id="Gradiente_sem_nome_2" data-name="Gradiente sem nome 2" x1="94.19" y1="99.64" x2="146.76" y2="99.64" gradientUnits="userSpaceOnUse">
      <stop offset="0" stop-color="#7dae59"/>
      <stop offset=".14" stop-color="#76a857"/>
      <stop offset=".35" stop-color="#639a51"/>
      <stop offset=".59" stop-color="#458248"/>
      <stop offset=".85" stop-color="#1b613c"/>
      <stop offset="1" stop-color="#004c34"/>
    </linearGradient>
  </defs>
  <g id="Camada_1-2" data-name="Camada 1">
    <g>
      <path class="cls-2" d="M112,135.64v8.36H16V48h16v16c0,2.27.77,4.17,2.3,5.7,1.53,1.53,3.43,2.3,5.7,2.3s4.17-.77,5.7-2.3,2.3-3.43,2.3-5.7v-16h32v16c0,2.27.77,4.17,2.3,5.7,1.53,1.53,3.43,2.3,5.7,2.3s4.17-.77,5.7-2.3,2.3-3.43,2.3-5.7v-16h16v13.35h16v-13.35c0-4.4-1.57-8.17-4.7-11.3-3.13-3.13-6.9-4.7-11.3-4.7h-16c0-8.8-3.13-16.33-9.4-22.6S72.8,0,64,0s-16.33,3.13-22.6,9.4c-6.27,6.27-9.4,13.8-9.4,22.6h-16c-4.4,0-8.17,1.57-11.3,4.7-3.13,3.13-4.7,6.9-4.7,11.3v96c0,4.4,1.57,8.17,4.7,11.3,3.13,3.13,6.9,4.7,11.3,4.7h96c4.4,0,8.17-1.57,11.3-4.7,3.13-3.13,4.7-6.9,4.7-11.3v-8.36h-16ZM52.7,20.7c3.13-3.13,6.9-4.7,11.3-4.7s8.17,1.57,11.3,4.7c3.13,3.13,4.7,6.9,4.7,11.3h-32c0-4.4,1.57-8.17,4.7-11.3Z"/>
      <path class="cls-1" d="M123.33,98.49h23.43v-23.43h-10.29v6.22c-4.5-4.2-10.52-6.79-17.14-6.79-13.86,0-25.14,11.28-25.14,25.14s11.28,25.14,25.14,25.14c11.28,0,20.85-7.47,24.02-17.71h-11.18c-2.57,4.43-7.36,7.43-12.85,7.43-8.19,0-14.86-6.66-14.86-14.86s6.67-14.86,14.86-14.86c3.6,0,6.89,1.29,9.46,3.43h-5.46v10.29Z"/>
    </g>
  </g>
</svg>