<?xml version="1.0" encoding="UTF-8"?>
<svg id="Camada_2" data-name="Camada 2" xmlns="http://www.w3.org/2000/svg" xmlns:xlink="http://www.w3.org/1999/xlink" viewBox="0 0 160 160">
  <defs>
    <style>
      .cls-1 {
        fill: url(#Gradiente_sem_nome_2);
      }

      .cls-1, .cls-2 {
        stroke-width: 0px;
      }

      .cls-2 {
        fill: #fff;
      }
    </style>
    <linearGradient id="Gradiente_sem_nome_2" data-name="Gradiente sem nome 2" x1="0" y1="80" x2="160" y2="80" gradientUnits="userSpaceOnUse">
      <stop offset="0" stop-color="#7dae59"/>
      <stop offset=".14" stop-color="#76a857"/>
      <stop offset=".35" stop-color="#639a51"/>
      <stop offset=".59" stop-color="#458248"/>
      <stop offset=".85" stop-color="#1b613c"/>
      <stop offset="1" stop-color="#004c34"/>
    </linearGradient>
  </defs>
  <g id="Camada_1-2" data-name="Camada 1">
    <g>
      <path class="cls-2" d="M56.16,115.15c11.99,9.7,25.02,17.31,39.09,22.83,14.07,5.52,28.52,8.28,43.33,8.28,3.23,0,5.45-.81,6.67-2.42s1.82-3.64,1.82-6.06v-32.73c0-1.89-.61-3.54-1.82-4.95s-2.76-2.32-4.65-2.73l-27.88-5.66c-1.48-.27-3.33-.07-5.56.61s-3.87,1.55-4.95,2.63l-18.99,18.99c-2.42-1.48-5.05-3.16-7.88-5.05s-5.32-3.7-7.47-5.45M98.59,121.21l13.33-13.33,18.99,4.04v17.78c-5.52-.4-10.98-1.35-16.36-2.83-5.39-1.48-10.71-3.37-15.96-5.66ZM33.54,92.12l11.31-11.31c-2.02-2.29-4.07-4.92-6.16-7.88-2.09-2.96-3.74-5.72-4.95-8.28l19.6-19.8c1.08-1.08,1.82-2.59,2.22-4.55s.47-3.54.2-4.75l-5.25-28.28c-.4-1.89-1.31-3.43-2.73-4.65-1.41-1.21-3.06-1.82-4.95-1.82H10.1c-2.42,0-4.44.81-6.06,2.42s-2.42,3.64-2.42,6.06c0,14.81,2.83,29.26,8.48,43.33,5.66,14.07,13.47,27.24,23.43,39.49ZM26.26,49.29c-2.29-5.25-4.04-10.57-5.25-15.96s-2.15-10.84-2.83-16.36h17.78l3.64,18.99-13.33,13.33Z"/>
      <path class="cls-1" d="M67.88,103.43L160,11.31l-11.31-11.31L0,148.69l11.31,11.31,44.85-44.85,11.72-11.72Z"/>
    </g>
  </g>
</svg>