<?xml version="1.0" encoding="UTF-8"?>
<svg id="Camada_2" data-name="Camada 2" xmlns="http://www.w3.org/2000/svg" xmlns:xlink="http://www.w3.org/1999/xlink" viewBox="0 0 167.62 160">
  <defs>
    <style>
      .cls-1 {
        fill: url(#Gradiente_sem_nome_2);
      }

      .cls-1, .cls-2 {
        stroke-width: 0px;
      }

      .cls-2 {
        fill: #fff;
      }
    </style>
    <linearGradient id="Gradiente_sem_nome_2" data-name="Gradiente sem nome 2" x1="121.9" y1="22.86" x2="167.62" y2="22.86" gradientUnits="userSpaceOnUse">
      <stop offset="0" stop-color="#7dae59"/>
      <stop offset=".14" stop-color="#76a857"/>
      <stop offset=".35" stop-color="#639a51"/>
      <stop offset=".59" stop-color="#458248"/>
      <stop offset=".85" stop-color="#1b613c"/>
      <stop offset="1" stop-color="#004c34"/>
    </linearGradient>
  </defs>
  <g id="Camada_1-2" data-name="Camada 1">
    <g>
      <path class="cls-1" d="M137.14,45.71v-15.24h-15.24v-15.24h15.24V0h15.24v15.24h15.24v15.24h-15.24v15.24h-15.24Z"/>
      <path class="cls-2" d="M76.19,160c-10.54,0-20.44-2-29.71-6-9.27-4-17.33-9.43-24.19-16.29-6.86-6.86-12.29-14.92-16.29-24.19-4-9.27-6-19.17-6-29.71s2-20.44,6-29.71,9.43-17.33,16.29-24.19c6.86-6.86,14.92-12.29,24.19-16.29,9.27-4,19.17-6,29.71-6,5.46,0,10.73.54,15.81,1.62,5.08,1.08,9.97,2.63,14.67,4.67v17.14c-4.44-2.54-9.24-4.54-14.38-6-5.14-1.46-10.51-2.19-16.1-2.19-16.89,0-31.27,5.94-43.14,17.81-11.87,11.87-17.81,26.25-17.81,43.14s5.94,31.27,17.81,43.14c11.87,11.87,26.25,17.81,43.14,17.81s31.27-5.94,43.14-17.81c11.87-11.87,17.81-26.25,17.81-43.14,0-4.06-.41-8-1.24-11.81s-1.94-7.49-3.33-11.05h16.38c1.14,3.68,2,7.4,2.57,11.14.57,3.75.86,7.65.86,11.71,0,10.54-2,20.44-6,29.71-4,9.27-9.43,17.33-16.29,24.19-6.86,6.86-14.92,12.29-24.19,16.29-9.27,4-19.17,6-29.71,6ZM102.86,76.19c3.17,0,5.87-1.11,8.1-3.33,2.22-2.22,3.33-4.92,3.33-8.1s-1.11-5.87-3.33-8.1c-2.22-2.22-4.92-3.33-8.1-3.33s-5.87,1.11-8.1,3.33c-2.22,2.22-3.33,4.92-3.33,8.1s1.11,5.87,3.33,8.1,4.92,3.33,8.1,3.33ZM49.52,76.19c3.17,0,5.87-1.11,8.1-3.33,2.22-2.22,3.33-4.92,3.33-8.1s-1.11-5.87-3.33-8.1c-2.22-2.22-4.92-3.33-8.1-3.33s-5.87,1.11-8.1,3.33c-2.22,2.22-3.33,4.92-3.33,8.1s1.11,5.87,3.33,8.1c2.22,2.22,4.92,3.33,8.1,3.33ZM76.19,125.71c8.63,0,16.48-2.44,23.52-7.33s12.16-11.33,15.33-19.33H37.33c3.17,8,8.29,14.44,15.33,19.33,7.05,4.89,14.89,7.33,23.52,7.33Z"/>
    </g>
  </g>
</svg>