<svg width="133" height="133" viewBox="0 0 133 133" fill="none" xmlns="http://www.w3.org/2000/svg">
<path d="M0 60C0 26.8629 26.8629 0 60 0H73C106.137 0 133 26.8629 133 60V132.318H60C26.8629 132.318 0 105.455 0 72.3184V60Z" fill="#7DB058"/>
<path d="M87.3094 31.435L73.5726 17.7534C72.5198 16.645 71.0502 16.0073 69.5224 16H69.4974C67.9439 16 66.4463 16.6523 65.3261 17.857L62.9399 20.5503C60.8955 22.743 60.8992 26.1762 62.9497 28.3652L63.5676 28.8716C63.405 28.8694 63.2454 28.8541 63.0821 28.8541C41.6796 28.8541 24 45.9105 24 66.5583C24 71.9784 25.1882 77.13 27.3249 81.7868C28.6531 84.6815 32.6262 85.3324 34.9459 83.0944L40.1458 78.0779C41.393 76.8746 41.8581 75.0964 41.3 73.483C40.0127 69.7653 39.7086 65.6207 40.7804 61.301C42.762 53.3175 49.3558 46.9554 57.6318 45.0436C59.4221 44.6299 61.1783 44.4489 62.8937 44.4358C60.9166 46.6292 60.9234 49.9894 62.8877 52.0945L65.3821 54.906C66.4433 56.0458 67.9401 56.6981 69.4936 56.6981H69.5269C71.0562 56.6886 72.5266 56.0472 73.5771 54.9352L87.1982 41.3127C89.5459 38.9493 88.7896 33.0556 87.3094 31.4357V31.435Z" stroke="white" stroke-width="2"/>
<path d="M45.6906 100.883L59.4274 114.565C60.4802 115.673 61.9498 116.311 63.4776 116.318H63.5026C65.0561 116.318 66.5537 115.666 67.6738 114.461L70.0601 111.768C72.1045 109.575 72.1007 106.142 70.0503 103.953L69.4323 103.447C69.595 103.449 69.7545 103.464 69.9179 103.464C91.3203 103.464 109 86.4079 109 65.7601C109 60.34 107.812 55.1884 105.675 50.5316C104.347 47.6369 100.374 46.986 98.0541 49.224L92.8542 54.2406C91.607 55.4438 91.1418 57.222 91.7 58.8354C92.9873 62.5531 93.2914 66.6977 92.2196 71.0174C90.238 79.0009 83.6441 85.363 75.3682 87.2748C73.5779 87.6885 71.8217 87.8695 70.1063 87.8826C72.0834 85.6892 72.0765 82.329 70.1123 80.2239L67.6179 77.4124C66.5567 76.2726 65.0599 75.6203 63.5064 75.6203H63.4731C61.9437 75.6298 60.4734 76.2712 59.4228 77.3832L45.8017 91.0057C43.454 93.3691 44.2104 99.2628 45.6906 100.883V100.883Z" stroke="white" stroke-width="2"/>
</svg>
