<svg width="200" height="46" viewBox="0 0 200 46" fill="none" xmlns="http://www.w3.org/2000/svg">
<g clip-path="url(#clip0_6_314)">
<path d="M24.7431 10.1513V34.4976H18.0402L17.5464 31.6865C16.6262 32.7712 15.4992 33.6028 14.1696 34.1768C12.84 34.7509 11.3838 35.0379 9.80943 35.0379C6.82101 35.0379 4.43619 34.0502 2.6634 32.079C0.890615 30.1078 0 27.3853 0 23.9031V10.1513H7.73695V23.4599C7.73695 25.0385 8.12106 26.271 8.89349 27.1574C9.66591 28.0438 10.7254 28.487 12.0718 28.487C13.5492 28.487 14.7395 27.9678 15.647 26.9337C16.5502 25.8996 17.0019 24.5616 17.0019 22.9154V10.1513H24.7388H24.7431Z" fill="white"/>
<path d="M51.8963 11.2614C53.669 12.3293 55.0493 13.8235 56.037 15.7483C57.0247 17.673 57.5143 19.8637 57.5143 22.3287C57.5143 24.7937 57.0205 26.9844 56.037 28.9091C55.0535 30.8338 53.6733 32.3281 51.8963 33.3959C50.1235 34.4638 48.1016 34.9957 45.835 34.9957C42.8128 34.9957 40.2972 34.0417 38.2964 32.1381V45.0499H30.5595V10.1513H37.2623L37.7562 13.0089C39.7949 10.776 42.4878 9.65747 45.8392 9.65747C48.1059 9.65747 50.1277 10.1935 51.9005 11.2572L51.8963 11.2614ZM48.1987 26.786C49.2835 25.6505 49.8238 24.1648 49.8238 22.3245C49.8238 20.4841 49.2835 18.9984 48.1987 17.8629C47.1139 16.7275 45.7168 16.1619 44.0116 16.1619C42.3063 16.1619 40.9134 16.736 39.8455 17.8883C38.7776 19.0406 38.2458 20.5179 38.2458 22.3245C38.2458 24.131 38.7776 25.6083 39.8455 26.7607C40.9134 27.913 42.3021 28.487 44.0116 28.487C45.721 28.487 47.1182 27.9214 48.1987 26.786Z" fill="white"/>
<path d="M87.4322 0V34.4976H80.7294L80.2355 31.5894C78.1673 33.856 75.4701 34.9915 72.1525 34.9915C69.8858 34.9915 67.8724 34.4596 66.1165 33.3917C64.3564 32.3238 62.9888 30.8296 62.0011 28.9049C61.0134 26.9801 60.5238 24.7895 60.5238 22.3245C60.5238 19.8594 61.0177 17.6688 62.0011 15.744C62.9846 13.8193 64.3564 12.3293 66.1165 11.2572C67.8724 10.1893 69.8858 9.65747 72.1525 9.65747C75.1409 9.65747 77.6565 10.5945 79.691 12.4686V0H87.428H87.4322ZM78.1631 26.786C79.2478 25.6505 79.7881 24.1648 79.7881 22.3245C79.7881 20.4841 79.2478 18.9984 78.1631 17.8629C77.0783 16.7275 75.6812 16.1619 73.9759 16.1619C72.2706 16.1619 70.8777 16.736 69.8098 17.8883C68.742 19.0406 68.2101 20.5179 68.2101 22.3245C68.2101 24.131 68.742 25.6083 69.8098 26.7607C70.8777 27.913 72.2664 28.487 73.9759 28.487C75.6854 28.487 77.0825 27.9214 78.1631 26.786Z" fill="white"/>
<path d="M118.823 10.1513V34.4976H112.12L111.627 31.5894C109.558 33.856 106.861 34.9915 103.543 34.9915C101.277 34.9915 99.2635 34.4596 97.5075 33.3917C95.7474 32.3238 94.3798 30.8296 93.3921 28.9049C92.4045 26.9801 91.9148 24.7895 91.9148 22.3245C91.9148 19.8594 92.4087 17.6688 93.3921 15.744C94.3756 13.8193 95.7474 12.3293 97.5075 11.2572C99.2635 10.1893 101.277 9.65747 103.543 9.65747C105.185 9.65747 106.696 9.94449 108.077 10.5185C109.457 11.0926 110.639 11.9241 111.627 13.0089L112.12 10.1513H118.823ZM109.558 26.786C110.643 25.6505 111.183 24.1648 111.183 22.3245C111.183 20.4841 110.643 18.9984 109.558 17.8629C108.474 16.7275 107.076 16.1619 105.371 16.1619C103.666 16.1619 102.273 16.736 101.205 17.8883C100.137 19.0406 99.6053 20.5179 99.6053 22.3245C99.6053 24.131 100.137 25.6083 101.205 26.7607C102.273 27.913 103.662 28.487 105.371 28.487C107.081 28.487 108.478 27.9214 109.558 26.786Z" fill="white"/>
<path d="M142.085 33.5648C140.177 34.5187 138.028 34.9957 135.627 34.9957C132.963 34.9957 130.861 34.2486 129.316 32.7544C127.772 31.2602 126.999 28.8542 126.999 25.5324V16.3139H122.858V10.1513H126.999V4.09007L134.69 3.25433V10.1555H140.751V16.3181H134.69V25.5366C134.69 26.5243 134.934 27.2545 135.428 27.7315C135.922 28.2084 136.593 28.4448 137.45 28.4448C138.404 28.4448 139.341 28.2169 140.261 27.7568L142.085 33.5732V33.5648Z" fill="white"/>
<path d="M164.021 11.1137C165.958 12.1183 167.448 13.5281 168.482 15.3515C169.517 17.1749 170.036 19.3023 170.036 21.7335C170.036 22.5228 169.951 23.4937 169.791 24.6417H151.898C152.126 25.8911 152.802 26.8999 153.92 27.6724C155.039 28.4448 156.465 28.8289 158.209 28.8289C159.424 28.8289 160.606 28.6474 161.758 28.2886C162.907 27.9256 163.894 27.4191 164.717 26.7607L168.757 31.0998C167.376 32.3829 165.743 33.3664 163.852 34.0586C161.961 34.7466 159.952 35.0928 157.816 35.0928C154.988 35.0928 152.544 34.5736 150.472 33.5395C148.403 32.5053 146.808 31.0364 145.689 29.1286C144.571 27.225 144.014 24.971 144.014 22.3751C144.014 19.7792 144.562 17.6603 145.664 15.7229C146.766 13.7855 148.302 12.2829 150.273 11.215C152.244 10.1471 154.528 9.61526 157.124 9.61526C159.72 9.61526 162.083 10.1176 164.025 11.1179L164.021 11.1137ZM153.595 16.9048C152.624 17.6941 152.076 18.7958 151.945 20.2056H162.687C162.59 18.7915 162.071 17.6941 161.134 16.9048C160.197 16.1155 158.939 15.7229 157.364 15.7229C155.79 15.7229 154.562 16.1155 153.595 16.9048Z" fill="white"/>
<path d="M193.766 11.8186L189.815 7.74117C189.511 7.41194 189.089 7.222 188.65 7.21778H188.642C188.194 7.21778 187.764 7.41194 187.443 7.77072L186.755 8.5727C186.168 9.22694 186.168 10.2484 186.755 10.9026L186.932 11.0546C186.886 11.0546 186.839 11.0504 186.793 11.0504C180.639 11.0504 175.552 16.1366 175.552 22.2907C175.552 23.9073 175.894 25.4437 176.511 26.8324C176.89 27.6935 178.034 27.8876 178.701 27.2207L180.195 25.7265C180.554 25.3677 180.689 24.8359 180.529 24.3547C180.157 23.2446 180.073 22.0121 180.381 20.7247C180.951 18.3441 182.846 16.4489 185.227 15.8791C185.742 15.7567 186.248 15.7018 186.742 15.6976C186.172 16.3519 186.176 17.3522 186.742 17.9811L187.46 18.8211C187.764 19.1588 188.194 19.3572 188.642 19.3572H188.65C189.089 19.3572 189.511 19.163 189.815 18.8338L193.732 14.7732C194.407 14.0683 194.188 12.3124 193.766 11.827V11.8186Z" fill="url(#paint0_linear_6_314)"/>
<path d="M181.795 32.518L185.746 36.5954C186.05 36.9246 186.472 37.1146 186.911 37.1188H186.919C187.367 37.1188 187.797 36.9246 188.118 36.5659L188.806 35.7639C189.393 35.1096 189.393 34.0882 188.806 33.4339L188.629 33.282C188.675 33.282 188.722 33.2862 188.768 33.2862C194.922 33.2862 200.008 28.2 200.008 22.0459C200.008 20.4293 199.667 18.8929 199.05 17.5042C198.67 16.6431 197.527 16.4489 196.86 17.1158L195.365 18.6101C195.007 18.9688 194.872 19.5007 195.032 19.9819C195.403 21.092 195.488 22.3245 195.18 23.6118C194.61 25.9924 192.715 27.8876 190.334 28.4575C189.819 28.5799 189.313 28.6347 188.819 28.639C189.389 27.9847 189.384 26.9844 188.819 26.3554L188.101 25.5155C187.797 25.1778 187.367 24.9794 186.919 24.9794H186.911C186.472 24.9794 186.05 25.1736 185.746 25.5028L181.829 29.5633C181.154 30.2682 181.373 32.0241 181.795 32.5095V32.518Z" fill="url(#paint1_linear_6_314)"/>
</g>
<defs>
<linearGradient id="paint0_linear_6_314" x1="175.557" y1="17.4155" x2="194.162" y2="17.4155" gradientUnits="userSpaceOnUse">
<stop stop-color="#7DAE59"/>
<stop offset="0.14" stop-color="#76A857"/>
<stop offset="0.35" stop-color="#639A51"/>
<stop offset="0.59" stop-color="#458248"/>
<stop offset="0.85" stop-color="#1B613C"/>
<stop offset="1" stop-color="#004C34"/>
</linearGradient>
<linearGradient id="paint1_linear_6_314" x1="181.394" y1="26.921" x2="200" y2="26.921" gradientUnits="userSpaceOnUse">
<stop stop-color="#7DAE59"/>
<stop offset="0.14" stop-color="#76A857"/>
<stop offset="0.35" stop-color="#639A51"/>
<stop offset="0.59" stop-color="#458248"/>
<stop offset="0.85" stop-color="#1B613C"/>
<stop offset="1" stop-color="#004C34"/>
</linearGradient>
<clipPath id="clip0_6_314">
<rect width="200" height="45.0457" fill="white"/>
</clipPath>
</defs>
</svg>
