<svg width="134" height="24" viewBox="0 0 134 24" fill="none" xmlns="http://www.w3.org/2000/svg">
<g clip-path="url(#clip0_1_29)">
<path d="M4.08985 22.9382C2.77431 22.2527 1.7641 21.2952 1.05921 20.0695C0.354328 18.8438 0 17.417 0 15.7889C0 14.1608 0.354328 12.7339 1.05921 11.5082C1.7641 10.2825 2.77431 9.32505 4.08985 8.63955C5.40538 7.95405 6.93955 7.60757 8.69234 7.60757C10.4451 7.60757 11.9868 7.95033 13.3137 8.63955C14.6405 9.32505 15.6545 10.2825 16.3594 11.5082C17.0643 12.7339 17.4186 14.1608 17.4186 15.7889C17.4186 17.417 17.0643 18.8438 16.3594 20.0695C15.6545 21.2952 14.6368 22.2527 13.3137 22.9382C11.9868 23.6237 10.4489 23.9702 8.69234 23.9702C6.93578 23.9702 5.40538 23.6274 4.08985 22.9382ZM11.3875 18.6427C12.0698 17.9013 12.4128 16.9513 12.4128 15.7889C12.4128 14.6265 12.0698 13.6765 11.3875 12.9351C10.7015 12.1937 9.80433 11.8249 8.69234 11.8249C7.58035 11.8249 6.71338 12.1937 6.03111 12.9351C5.34507 13.6765 5.00582 14.6265 5.00582 15.7889C5.00582 16.9513 5.34884 17.9013 6.03111 18.6427C6.71338 19.384 7.60297 19.7529 8.69234 19.7529C9.78171 19.7529 10.7015 19.384 11.3875 18.6427Z" fill="white"/>
<path d="M34.7882 9.51134C35.953 10.778 36.5372 12.5328 36.5372 14.7755V23.62H31.5013V15.0587C31.5013 14.0453 31.2449 13.2518 30.7323 12.6818C30.2196 12.1118 29.5148 11.8249 28.6139 11.8249C27.63 11.8249 26.8385 12.1528 26.2391 12.8084C25.6398 13.4641 25.342 14.321 25.342 15.3754V23.62H20.306V7.95778H24.6673L24.9877 9.7982C25.6058 9.10153 26.3522 8.56132 27.2154 8.18131C28.0824 7.80131 29.0398 7.61131 30.0877 7.61131C32.0554 7.61131 33.6197 8.24465 34.7882 9.51506V9.51134Z" fill="white"/>
<path d="M56.749 1.42689V23.62H52.3877L52.0673 21.7498C50.7217 23.2065 48.9651 23.9367 46.8052 23.9367C45.3313 23.9367 44.0196 23.5939 42.8737 22.9047C41.7278 22.2192 40.8382 21.2543 40.1936 20.0211C39.5528 18.7842 39.2324 17.3722 39.2324 15.7889C39.2324 14.2055 39.5528 12.7935 40.1936 11.5567C40.8344 10.3198 41.7278 9.35859 42.8737 8.67308C44.0158 7.98758 45.3276 7.64111 46.8052 7.64111C48.7502 7.64111 50.3862 8.24465 51.713 9.448V1.42689H56.749ZM50.7179 18.6576C51.4228 17.9274 51.7771 16.9736 51.7771 15.7889C51.7771 14.6042 51.4228 13.6504 50.7179 12.9202C50.013 12.19 49.1046 11.8249 47.9926 11.8249C46.8806 11.8249 45.9759 12.1937 45.2823 12.9351C44.5888 13.6765 44.2382 14.6265 44.2382 15.7889C44.2382 16.9513 44.585 17.9013 45.2823 18.6427C45.9759 19.384 46.8806 19.7529 47.9926 19.7529C49.1046 19.7529 50.013 19.3878 50.7179 18.6576Z" fill="white"/>
<path d="M72.69 8.57622C73.9527 9.22074 74.9215 10.1298 75.5924 11.3033C76.2672 12.4769 76.6027 13.8442 76.6027 15.4089C76.6027 15.9156 76.5499 16.5414 76.4406 17.2791H64.7968C64.9475 18.0838 65.3848 18.7321 66.1123 19.2276C66.8398 19.7231 67.7708 19.9727 68.9017 19.9727C69.6933 19.9727 70.4622 19.8572 71.2124 19.6225C71.9625 19.3915 72.6033 19.0636 73.1385 18.6389L75.7696 21.4294C74.8725 22.2527 73.8057 22.8861 72.5769 23.3331C71.3481 23.7765 70.0363 24 68.6491 24C66.8096 24 65.2152 23.6684 63.8695 23.0016C62.5238 22.3347 61.4834 21.3884 60.7597 20.1627C60.0322 18.937 59.6703 17.4877 59.6703 15.8187C59.6703 14.1496 60.0284 12.7861 60.7446 11.538C61.4608 10.29 62.4597 9.32506 63.7451 8.63583C65.0267 7.95033 66.5156 7.60385 68.2043 7.60385C69.8931 7.60385 71.4348 7.92797 72.6937 8.57249L72.69 8.57622ZM65.905 12.3018C65.2755 12.8084 64.9174 13.5163 64.8307 14.4253H71.823C71.7589 13.5163 71.4234 12.8084 70.8128 12.3018C70.2021 11.7951 69.3842 11.5418 68.3589 11.5418C67.3336 11.5418 66.5345 11.7951 65.905 12.3018Z" fill="white"/>
<path d="M90.7494 23.0202C89.5092 23.6312 88.107 23.9404 86.5465 23.9404C84.8125 23.9404 83.4442 23.4598 82.4415 22.4986C81.4351 21.5374 80.9338 19.9876 80.9338 17.8528V11.9255H78.2386V7.9615H80.9338V4.06085L85.9396 3.52065V7.95778H89.8862V11.9218H85.9396V17.8491C85.9396 18.4825 86.1017 18.9556 86.4221 19.2611C86.7425 19.5666 87.1797 19.7193 87.7376 19.7193C88.3558 19.7193 88.9664 19.5703 89.5658 19.276L90.7532 23.0165L90.7494 23.0202Z" fill="white"/>
<path d="M109.517 7.95778V23.62H105.156L104.836 21.7498C103.49 23.2065 101.734 23.9367 99.5737 23.9367C98.0998 23.9367 96.788 23.5939 95.6421 22.9047C94.4962 22.2192 93.6066 21.2543 92.9621 20.0211C92.3212 18.7842 92.0008 17.3722 92.0008 15.7889C92.0008 14.2055 92.3212 12.7935 92.9621 11.5567C93.6029 10.3198 94.4962 9.35858 95.6421 8.67308C96.7843 7.98758 98.096 7.64111 99.5737 7.64111C100.644 7.64111 101.628 7.82738 102.525 8.19621C103.422 8.56504 104.195 9.10152 104.836 9.7982L105.156 7.95778H109.517ZM103.486 18.6576C104.191 17.9274 104.546 16.9736 104.546 15.7889C104.546 14.6042 104.191 13.6504 103.486 12.9202C102.781 12.19 101.873 11.8249 100.761 11.8249C99.649 11.8249 98.7444 12.1937 98.0508 12.9351C97.3572 13.6765 97.0067 14.6265 97.0067 15.7889C97.0067 16.9513 97.3535 17.9013 98.0508 18.6427C98.7444 19.384 99.649 19.7529 100.761 19.7529C101.873 19.7529 102.781 19.3878 103.486 18.6576Z" fill="white"/>
<path d="M127.818 9.81311C128.96 11.1021 129.533 12.8457 129.533 15.0438V23.8882H124.497V15.3269C124.497 14.3136 124.245 13.52 123.743 12.95C123.242 12.38 122.541 12.0931 121.644 12.0931C120.66 12.0931 119.865 12.421 119.254 13.0767C118.643 13.7324 118.338 14.5893 118.338 15.6436V23.8882H113.302V1.69513H118.338V9.93977C119.555 8.56505 121.173 7.87954 123.182 7.87954C125.191 7.87954 126.672 8.52407 127.818 9.81311Z" fill="white"/>
<path d="M133.981 3.36417C133.951 3.65849 133.876 3.94536 133.77 4.22105C133.597 4.67929 133.34 5.09655 133.043 5.48401C132.707 5.9199 132.323 6.30736 131.919 6.67991C131.542 7.03011 131.162 7.37659 130.785 7.72307C130.408 7.37659 130.027 7.02639 129.65 6.67991C129.247 6.30736 128.862 5.9199 128.527 5.48401C128.229 5.09283 127.973 4.67929 127.799 4.22105C127.694 3.94536 127.618 3.65849 127.588 3.36417C127.513 2.60043 127.713 1.91121 128.195 1.31139C128.519 0.909032 128.911 0.584909 129.382 0.357651C129.722 0.193726 130.076 0.0782342 130.453 0.0260765C130.566 0.0111742 130.675 0.00372314 130.788 0.00372314C130.902 0.00372314 131.011 0.0111742 131.124 0.0260765C131.501 0.0782342 131.855 0.190001 132.194 0.357651C132.662 0.584909 133.058 0.909032 133.382 1.31139C133.864 1.91493 134.064 2.60043 133.989 3.36417H133.981Z" fill="#009580"/>
</g>
<defs>
<clipPath id="clip0_1_29">
<rect width="134" height="24" fill="white"/>
</clipPath>
</defs>
</svg>
