<?xml version="1.0" encoding="UTF-8"?>
<svg id="Camada_2" xmlns="http://www.w3.org/2000/svg" viewBox="0 0 630.34 155.81">
  <defs>
    <style>
      .cls-1 {
        fill: #fff;
      }
    </style>
  </defs>
  <g id="Camada_7">
    <g id="ux">
      <g>
        <path class="cls-1" d="M552.38,0l-26.44,41.96L501.09,0h-33.82l.06.1h-25.86v80.82c0,18.1-1.82,23.81-2.6,25.42-1.49,3.08-3.71,5.26-6.77,6.65-3.59,1.64-7.83,2.48-12.59,2.48-5.1,0-9.73-.86-13.77-2.56-3.54-1.49-6.02-3.53-7.6-6.24-.77-1.33-2.56-5.94-2.56-20.09V.1h-29.98v88.67c0,15.17,2.15,25.91,6.56,32.82,4.47,7,11.26,12.18,20.17,15.38,8.21,2.95,17.31,4.45,27.04,4.45,10.76,0,19.95-1.97,27.31-5.86,7.53-3.97,13.39-9.51,17.42-16.47,4.05-6.98,6.02-18.08,6.02-33.93V4.84l38.33,64.83-44.81,71.85h32.76l28.03-45.19,26.77,45.19h33.55l-43-72.96L584.91,0h-32.53Z"/>
        <rect class="cls-1" x="595.18" y="106.12" width="35.16" height="35.4"/>
      </g>
    </g>
    <g>
      <path class="cls-1" d="M12.89,112.41c1.58-.86,3.42-1.29,5.53-1.29,2.47,0,4.71.63,6.71,1.88s3.59,3.04,4.75,5.37c1.16,2.33,1.75,5.03,1.75,8.11s-.58,5.79-1.75,8.14-2.75,4.15-4.75,5.42c-2.01,1.27-4.24,1.91-6.71,1.91-2.08,0-3.91-.43-5.51-1.29s-2.84-1.97-3.73-3.33v18.48H0v-44.26h9.19v4.24c.9-1.4,2.13-2.52,3.71-3.38ZM20.39,121.08c-1.27-1.31-2.84-1.96-4.7-1.96s-3.38.66-4.65,1.99c-1.27,1.33-1.91,3.13-1.91,5.42s.64,4.1,1.91,5.43c1.27,1.33,2.82,1.99,4.65,1.99s3.38-.67,4.67-2.01c1.29-1.34,1.93-3.16,1.93-5.45s-.64-4.09-1.91-5.4Z"/>
      <path class="cls-1" d="M42.19,140.07c-2.35-1.25-4.19-3.04-5.53-5.37-1.34-2.33-2.01-5.05-2.01-8.17s.68-5.79,2.04-8.14,3.22-4.14,5.59-5.4,5.01-1.88,7.95-1.88,5.59.63,7.95,1.88,4.23,3.05,5.59,5.4c1.36,2.35,2.04,5.06,2.04,8.14s-.69,5.79-2.07,8.14c-1.38,2.35-3.26,4.15-5.64,5.4-2.38,1.25-5.04,1.88-7.98,1.88s-5.58-.63-7.92-1.88ZM54.6,132.07c1.24-1.29,1.85-3.13,1.85-5.53s-.6-4.24-1.8-5.53c-1.2-1.29-2.68-1.93-4.43-1.93s-3.28.64-4.46,1.91c-1.18,1.27-1.77,3.12-1.77,5.56s.58,4.24,1.75,5.53c1.16,1.29,2.62,1.93,4.38,1.93s3.25-.64,4.49-1.93Z"/>
      <path class="cls-1" d="M113.72,111.55l-8.11,29.97h-10.15l-4.73-19.45-4.89,19.45h-10.1l-8.17-29.97h9.19l4.24,21.43,5.05-21.43h9.72l5.1,21.33,4.19-21.33h8.65Z"/>
      <path class="cls-1" d="M145.3,128.74h-20.79c.14,1.86.74,3.29,1.8,4.27,1.06.99,2.35,1.48,3.89,1.48,2.29,0,3.88-.97,4.78-2.9h9.78c-.5,1.97-1.41,3.74-2.71,5.32-1.31,1.58-2.95,2.81-4.92,3.71-1.97.9-4.17,1.34-6.61,1.34-2.94,0-5.55-.63-7.84-1.88-2.29-1.25-4.08-3.04-5.37-5.37-1.29-2.33-1.93-5.05-1.93-8.17s.64-5.84,1.91-8.17c1.27-2.33,3.05-4.12,5.34-5.37,2.29-1.25,4.92-1.88,7.9-1.88s5.48.61,7.74,1.83,4.02,2.95,5.29,5.21c1.27,2.26,1.91,4.89,1.91,7.9,0,.86-.05,1.75-.16,2.69ZM136.06,123.63c0-1.58-.54-2.83-1.61-3.76-1.07-.93-2.42-1.4-4.03-1.4s-2.84.45-3.89,1.34c-1.06.9-1.71,2.17-1.96,3.81h11.5Z"/>
      <path class="cls-1" d="M163.51,112.65c1.61-.95,3.4-1.42,5.37-1.42v9.72h-2.53c-2.29,0-4.01.49-5.16,1.48-1.15.99-1.72,2.71-1.72,5.18v13.91h-9.19v-29.97h9.19v5c1.08-1.65,2.42-2.95,4.03-3.89Z"/>
      <path class="cls-1" d="M201.38,128.74h-20.79c.14,1.86.74,3.29,1.8,4.27,1.06.99,2.35,1.48,3.89,1.48,2.29,0,3.88-.97,4.78-2.9h9.78c-.5,1.97-1.41,3.74-2.71,5.32-1.31,1.58-2.95,2.81-4.92,3.71-1.97.9-4.17,1.34-6.61,1.34-2.94,0-5.55-.63-7.84-1.88-2.29-1.25-4.08-3.04-5.37-5.37-1.29-2.33-1.93-5.05-1.93-8.17s.64-5.84,1.91-8.17c1.27-2.33,3.05-4.12,5.34-5.37,2.29-1.25,4.92-1.88,7.9-1.88s5.48.61,7.74,1.83,4.02,2.95,5.29,5.21c1.27,2.26,1.91,4.89,1.91,7.9,0,.86-.05,1.75-.16,2.69ZM192.14,123.63c0-1.58-.54-2.83-1.61-3.76-1.07-.93-2.42-1.4-4.03-1.4s-2.84.45-3.89,1.34c-1.06.9-1.71,2.17-1.96,3.81h11.5Z"/>
      <path class="cls-1" d="M206.3,118.37c1.16-2.33,2.75-4.12,4.75-5.37,2-1.25,4.24-1.88,6.71-1.88,1.97,0,3.77.41,5.4,1.24,1.63.82,2.91,1.93,3.84,3.33v-13.91h9.19v39.75h-9.19v-4.3c-.86,1.43-2.09,2.58-3.68,3.44-1.59.86-3.45,1.29-5.56,1.29-2.47,0-4.71-.64-6.71-1.91-2.01-1.27-3.59-3.08-4.75-5.42-1.16-2.35-1.75-5.06-1.75-8.14s.58-5.78,1.75-8.11ZM225.1,121.11c-1.27-1.33-2.82-1.99-4.65-1.99s-3.38.65-4.65,1.96c-1.27,1.31-1.91,3.11-1.91,5.4s.64,4.11,1.91,5.45c1.27,1.34,2.82,2.01,4.65,2.01s3.38-.66,4.65-1.99c1.27-1.32,1.91-3.13,1.91-5.43s-.64-4.1-1.91-5.42Z"/>
      <path class="cls-1" d="M267.13,112.41c1.61-.86,3.46-1.29,5.53-1.29,2.47,0,4.71.63,6.71,1.88s3.59,3.04,4.75,5.37c1.16,2.33,1.75,5.03,1.75,8.11s-.58,5.79-1.75,8.14-2.75,4.15-4.75,5.42c-2.01,1.27-4.24,1.91-6.71,1.91-2.11,0-3.96-.42-5.53-1.26-1.58-.84-2.81-1.96-3.71-3.36v4.19h-9.19v-39.75h9.19v14.02c.86-1.4,2.1-2.52,3.71-3.38ZM274.62,121.08c-1.27-1.31-2.84-1.96-4.7-1.96s-3.38.66-4.65,1.99c-1.27,1.33-1.91,3.13-1.91,5.42s.64,4.1,1.91,5.43c1.27,1.33,2.82,1.99,4.65,1.99s3.38-.67,4.67-2.01c1.29-1.34,1.93-3.16,1.93-5.45s-.64-4.09-1.91-5.4Z"/>
      <path class="cls-1" d="M321.33,111.55l-18.8,44.21h-9.88l6.88-15.26-12.19-28.95h10.26l6.93,18.75,6.88-18.75h9.94Z"/>
      <path class="cls-1" d="M325.01,118.66c-1.02-.95-1.53-2.12-1.53-3.52s.51-2.63,1.53-3.6c1.02-.97,2.34-1.45,3.95-1.45s2.87.48,3.89,1.45c1.02.97,1.53,2.17,1.53,3.6s-.51,2.57-1.53,3.52c-1.02.95-2.32,1.42-3.89,1.42s-2.93-.47-3.95-1.42ZM325.01,140.53c-1.02-.95-1.53-2.12-1.53-3.52s.51-2.63,1.53-3.6,2.34-1.45,3.95-1.45,2.87.48,3.89,1.45,1.53,2.17,1.53,3.6-.51,2.57-1.53,3.52c-1.02.95-2.32,1.42-3.89,1.42s-2.93-.47-3.95-1.42Z"/>
    </g>
  </g>
</svg>